HIERARCHY
ROOT Hips
{
	OFFSET 0.000000 0.000000 0.000000
	CHANNELS 6 Xposition Yposition Zposition Zrotation Xrotation Yrotation
	JOINT RightUpLeg
	{
		OFFSET -10.795800 0.000000 0.000000
		CHANNELS 3 Zrotation Xrotation Yrotation
		JOINT RightLeg
		{
			OFFSET 0.000000 -39.557900 0.000000
			CHANNELS 3 Zrotation Xrotation Yrotation
			JOINT RightFoot
			{
				OFFSET 0.000000 -40.613400 0.000000
				CHANNELS 3 Zrotation Xrotation Yrotation
				JOINT RightToe
				{
					OFFSET 0.000000 -1.003500 12.392200
					CHANNELS 3 Zrotation Xrotation Yrotation
					JOINT RightToeEnd
					{
						OFFSET 0.000000 1.088300 5.767000
						CHANNELS 3 Zrotation Xrotation Yrotation
						End Site
						{
						    OFFSET 0.000000 0.927200 4.913300
						}
					}
				}
			}
		}
	}
	JOINT LeftUpLeg
	{
		OFFSET 10.795800 0.000000 0.000000
		CHANNELS 3 Zrotation Xrotation Yrotation
		JOINT LeftLeg
		{
			OFFSET 0.000000 -39.557900 0.000000
			CHANNELS 3 Zrotation Xrotation Yrotation
			JOINT LeftFoot
			{
				OFFSET 0.000000 -40.613400 0.000000
				CHANNELS 3 Zrotation Xrotation Yrotation
				JOINT LeftToe
				{
					OFFSET 0.000000 -1.003500 12.392200
					CHANNELS 3 Zrotation Xrotation Yrotation
					JOINT LeftToeEnd
					{
						OFFSET 0.000000 1.088300 5.767000
						CHANNELS 3 Zrotation Xrotation Yrotation
						End Site
						{
						    OFFSET 0.000000 0.927200 4.913300
						}
					}
				}
			}
		}
	}
	JOINT Spine
	{
		OFFSET 0.000000 15.108100 0.000000
		CHANNELS 3 Zrotation Xrotation Yrotation
		JOINT Spine1
		{
			OFFSET 0.000000 12.828000 0.000000
			CHANNELS 3 Zrotation Xrotation Yrotation
			JOINT Spine2
			{
				OFFSET 0.000000 11.155500 0.000000
				CHANNELS 3 Zrotation Xrotation Yrotation
				JOINT LeftShoulder
				{
					OFFSET 2.000000 11.155500 0.000000
					CHANNELS 3 Zrotation Xrotation Yrotation
					JOINT LeftArm
					{
						OFFSET 15.139800 0.000000 0.000000
						CHANNELS 3 Zrotation Xrotation Yrotation
						JOINT LeftForeArm
						{
							OFFSET 0.000000 -26.627300 0.000000
							CHANNELS 3 Zrotation Xrotation Yrotation
							JOINT LeftHand
							{
								OFFSET 0.000000 -24.932400 0.000000
								CHANNELS 3 Zrotation Xrotation Yrotation
								JOINT LeftFinger0
								{
									OFFSET 0.000000 -8.640100 0.000000
									CHANNELS 3 Zrotation Xrotation Yrotation
									End Site
									{
									    OFFSET 0.000000 -5.000000 0.000000
									}
								}
							}
						}
					}
				}
				JOINT RightShoulder
				{
					OFFSET -2.000000 11.155500 0.000000
					CHANNELS 3 Zrotation Xrotation Yrotation
					JOINT RightArm
					{
						OFFSET -15.139800 0.000000 0.000000
						CHANNELS 3 Zrotation Xrotation Yrotation
						JOINT RightForeArm
						{
							OFFSET 0.000000 -26.627300 0.000000
							CHANNELS 3 Zrotation Xrotation Yrotation
							JOINT RightHand
							{
								OFFSET 0.000000 -24.932400 0.000000
								CHANNELS 3 Zrotation Xrotation Yrotation
								JOINT RightFinger0
								{
									OFFSET 0.000000 -8.640100 0.000000
									CHANNELS 3 Zrotation Xrotation Yrotation
									End Site
									{
									    OFFSET 0.000000 -5.000000 0.000000
									}
								}
							}
						}
					}
				}
				JOINT Neck
				{
					OFFSET 0.000000 11.155500 0.000000
					CHANNELS 3 Zrotation Xrotation Yrotation
					JOINT Head
					{
						OFFSET 0.000000 10.940000 0.000000
						CHANNELS 3 Zrotation Xrotation Yrotation
						JOINT HeadTip
						{
							OFFSET 0.000000 10.000000 0.000000
							CHANNELS 3 Zrotation Xrotation Yrotation
							End Site
							{
							    OFFSET 0.000000 5.000000 0.000000
							}
						}
					}
				}
			}
		}
	}
}
MOTION
Frames:	8
Frame Time:	0.033332
66.880900 83.297300 -63.575200 -5.472314 7.527233 -109.600474 9.160617 15.241418 -4.676343 -0.000000 7.177861 -0.000000 9.578399 -4.348097 -17.133838 -0.000000 -0.542013 -0.000000 -0.000000 0.000000 0.000000 10.204060 -17.054120 17.465633 -0.000000 7.977295 0.000000 -22.445007 18.662526 19.767325 0.000000 -14.399592 -0.000000 -0.000000 -0.000000 0.000000 7.193206 10.089381 6.562280 0.000000 4.808830 -0.000000 -0.000000 0.000000 -0.000000 -8.900651 -0.000000 2.638196 20.318983 -13.969719 -23.983546 -0.000000 -24.017448 0.000000 -4.019521 15.406806 -23.132672 0.000000 0.000000 -0.000000 1.290340 -0.000000 5.630467 -18.261574 -36.526461 14.020406 -0.000176 -49.229596 -0.000081 4.276203 -1.054537 4.198303 -0.000000 -0.000000 -0.000000 -0.000000 0.000000 -0.000000 -2.123609 8.772647 11.583280 -0.000000 0.000000 -0.000000 
69.125600 83.533900 -63.223000 -4.967596 8.312714 -110.133107 10.140375 14.825997 -4.369929 -0.000000 4.604215 -0.000000 10.125785 -2.078710 -16.708759 -0.000000 -0.517377 -0.000000 -0.000000 -0.000000 0.000000 12.030203 -17.937622 21.358656 -0.000000 8.908473 -0.000000 -22.761524 15.273811 19.537089 -0.000000 -14.601151 -0.000000 -0.000000 -0.000000 -0.000000 8.425937 10.413112 6.292529 -0.000000 4.891105 0.000000 -0.000000 0.000000 -0.000000 -9.647658 -0.000000 2.759574 19.440917 -14.894160 -26.145917 0.000000 -29.590216 -0.000000 -3.864331 13.352784 -21.849285 -0.000000 0.000000 0.000000 2.540053 -0.000000 6.315802 -20.249511 -34.716412 13.580713 -0.000197 -52.361365 -0.000097 3.984373 -2.590309 3.428899 -0.000000 0.000000 -0.000000 -0.000000 0.000000 -0.000000 -2.036059 9.021334 11.781123 -0.000000 0.000000 0.000000 
71.006200 83.961300 -62.700500 -4.928264 7.860800 -110.778558 9.703619 13.558418 -3.935388 -0.000000 4.011161 -0.000000 9.923268 -0.433104 -16.970156 0.000000 -0.359278 -0.000000 -0.000000 0.000000 -0.000000 12.570545 -18.528212 25.041883 0.000000 12.305784 -0.000000 -21.401698 13.458173 19.707561 -0.000000 -14.725169 -0.000000 -0.000000 0.000000 -0.000000 7.859867 10.409206 6.279668 -0.000000 5.120620 0.000000 -0.000000 0.000000 -0.000000 -8.726140 0.000000 2.851150 17.189409 -15.109622 -28.332636 0.000000 -34.855801 -0.000000 -3.469533 11.708954 -22.355115 0.000000 0.000000 -0.000000 3.016559 0.000000 5.954547 -19.929033 -32.391536 14.419874 -0.000202 -53.049438 -0.000101 3.771199 -3.535952 3.093086 0.000000 0.000000 -0.000000 -0.000000 0.000000 -0.000000 -1.186588 9.174810 11.885283 -0.000000 -0.000000 0.000000 
72.626900 84.476200 -62.075800 -5.364082 6.977340 -111.258805 8.556133 12.050660 -3.736533 -0.000000 4.720244 0.000000 10.104206 0.747634 -16.887139 0.000000 -0.289228 -0.000000 0.000000 0.000000 -0.000000 12.582378 -18.919876 26.883730 -0.000000 18.536849 -0.000000 -19.765369 12.181310 18.806766 -0.000000 -15.265013 -0.000000 -0.000000 0.000000 -0.000000 6.558810 10.793611 5.939072 0.000000 5.180202 0.000000 -0.000000 -0.000000 -0.000000 -7.051636 0.000000 2.789181 14.676070 -14.633223 -30.018128 0.000000 -40.221350 -0.000000 -4.376236 11.658699 -22.861335 0.000000 0.000000 -0.000000 2.612596 0.000000 4.991984 -17.992198 -29.693227 15.987147 -0.000193 -51.770075 -0.000094 3.884109 -2.772891 3.394881 0.000000 -0.000000 -0.000000 -0.000000 -0.000000 -0.000000 -0.331445 8.929746 12.130181 -0.000000 0.000000 0.000000 
73.993200 84.922600 -61.409400 -6.175806 6.107774 -111.670644 7.218763 10.944413 -3.816727 -0.000000 5.628965 -0.000000 10.255558 1.649033 -16.532120 -0.000000 -0.265527 -0.000000 -0.000000 0.000000 -0.000000 12.323797 -18.933823 25.777977 -0.000000 26.439702 0.000000 -18.325554 11.329212 17.239913 -0.000000 -16.409857 -0.000000 0.000000 0.000000 0.000000 5.187527 11.277053 5.251600 -0.000000 5.545959 -0.000000 -0.000000 0.000000 -0.000000 -5.583070 -0.000000 2.287534 13.044285 -13.804555 -31.819726 -0.000000 -45.214888 0.000000 -4.927219 11.524465 -24.668343 0.000000 -0.000000 0.000000 2.081187 -0.000000 3.952617 -15.994918 -26.932566 17.548546 -0.000173 -48.637149 -0.000078 4.572817 -1.435954 3.742765 -0.000000 -0.000000 -0.000000 -0.000000 0.000000 -0.000000 0.123320 8.275799 12.659653 -0.000000 0.000000 -0.000000 
75.192900 85.190600 -60.759200 -7.019035 5.696220 -112.127796 6.244277 10.062102 -3.938060 0.000000 6.697139 -0.000000 10.280149 2.232968 -15.989469 -0.000000 -0.135053 -0.000000 -0.000000 0.000000 -0.000000 12.412059 -18.532870 24.131455 -0.000000 34.890567 -0.000000 -17.425218 10.149728 16.448067 -0.000000 -17.689850 -0.000000 0.000000 -0.000000 0.000000 4.381910 11.809718 4.446131 -0.000000 6.068396 -0.000000 -0.000000 0.000000 0.000000 -5.111847 -0.000000 1.649191 12.952027 -13.103839 -33.728351 -0.000000 -50.018551 0.000000 -5.739610 11.271349 -24.786735 -0.000000 0.000000 -0.000000 1.944347 0.000000 3.097850 -15.001111 -24.125794 18.714245 -0.000147 -43.982036 -0.000059 5.217558 -0.370653 4.112344 0.000000 -0.000000 -0.000000 -0.000000 0.000000 0.000000 0.122883 7.475050 13.354486 -0.000000 0.000000 -0.000000 
76.230200 85.255100 -60.158700 -7.709112 5.855102 -112.515078 5.885353 9.459246 -3.932348 -0.000000 7.584052 -0.000000 10.301202 2.601346 -15.633061 -0.000000 -0.111789 -0.000000 -0.000000 -0.000000 0.000000 13.165373 -17.626792 23.123018 -0.000000 43.229523 -0.000000 -16.371647 8.341075 17.506887 -0.000000 -18.476968 -0.000000 -0.000000 0.000000 -0.000000 4.302440 12.204561 3.487971 -0.000000 6.592070 0.000000 -0.000000 -0.000000 -0.000000 -5.471114 -0.000000 1.206894 13.845643 -12.736580 -36.076130 -0.000000 -53.706728 -0.000000 -5.982819 10.504720 -25.403261 -0.000000 0.000000 -0.000000 2.502421 0.000000 2.703152 -15.581127 -21.180969 19.597225 -0.000119 -37.943126 -0.000041 5.457302 0.224479 3.937746 0.000000 -0.000000 -0.000000 -0.000000 -0.000000 -0.000000 -0.108346 7.055950 14.207371 -0.000000 0.000000 0.000000 
77.116300 85.185700 -59.627700 -8.064034 6.376330 -112.625328 6.045067 9.064101 -4.155572 -0.000000 7.969196 -0.000000 10.391868 2.887941 -15.303000 -0.000000 0.090265 -0.000000 0.000000 -0.000000 0.000000 14.348605 -16.236728 22.379242 -0.000000 50.561261 -0.000000 -14.600105 6.301455 19.545839 0.000000 -18.942349 -0.000000 -0.000000 0.000000 0.000000 4.715213 12.208362 2.192023 -0.000000 6.918254 -0.000000 0.000000 -0.000000 0.000000 -6.032206 -0.000000 1.046479 14.599019 -12.475816 -38.026833 -0.000000 -55.464300 -0.000000 -6.101151 9.862075 -26.519758 0.000000 0.000000 0.000000 3.800548 0.000000 2.717024 -17.491736 -18.120158 20.750944 -0.000090 -30.503382 -0.000024 5.458736 1.134118 3.111466 -0.000000 -0.000000 -0.000000 0.000000 -0.000000 0.000000 -0.187250 7.274116 15.212658 -0.000000 -0.000000 -0.000000 
